# xmcd CD database file
#
# Track frame offsets:
#	150
#	15172
#	34832
#	52850
#	70277
#	91977
#	108515
#	135000
#	151565
#	176597
#	189767
#	208167
#	224885
#	237762
#	251708
#	263388
#	275951
#	287843
#	306156
#	324786
#
# Disc length: 4557 seconds
#
# Revision: 2
# Processed by: cddbd v1.4b41PL1 Copyright (c) Steve Scherf et al.
# Submitted via: Feurio! 1.50.2ß - http://www.feurio.com
#
DISCID=0f11cb14
DTITLE=Stevie Wonder - Song Review
DYEAR=1900
DGENRE=
TTITLE0=Isn't She Lovely
TTITLE1=I Just Called To Say I Love You
TTITLE2=Superstition
TTITLE3=Sir Duke
TTITLE4=Master Blaster (Jammin')
TTITLE5=Ebony and Ivory
TTITLE6=Happy Birthday
TTITLE7=Living For The City
TTITLE8=He's Misstra Know It All
TTITLE9=You Are The Sunshine Of My Life
TTITLE10=Lately
TTITLE11=Part-Time Lover
TTITLE12=My Cherie Amour
TTITLE13=Yester-Me, Yester-You, Yesterday
TTITLE14=I Was Made To Love Her
TTITLE15=For Once In My Life
TTITLE16=Signed, Sealed, Delivered, I'm Yours
TTITLE17=For Your Love
TTITLE18=Kiss Lonely Good-Bye
TTITLE19=Redemption Song
EXTD=
EXTT0=
EXTT1=
EXTT2=
EXTT3=
EXTT4=
EXTT5=
EXTT6=
EXTT7=
EXTT8=
EXTT9=
EXTT10=
EXTT11=
EXTT12=
EXTT13=
EXTT14=
EXTT15=
EXTT16=
EXTT17=
EXTT18=
EXTT19=
PLAYORDER=
